<?xml version="1.0" encoding="utf-8"?>
<svg version="1.1" xmlns:xlink="http://www.w3.org/1999/xlink" width="20px" height="19px" xmlns="http://www.w3.org/2000/svg">
  <g transform="matrix(1 0 0 1 -351 0 )">
    <path d="M 11.1400022416548 10.7722022116921  C 11.1253070401278 10.5479599365234  11.2728495649858 10.3096499189897  11.5827433860085 10.0572505892667  C 11.8926372070312 9.80498072065874  12.2395075017756 9.52455379749645  12.6232180175781 9.21609930197976  C 13.0069285333807 8.90766637628729  13.3610215065696 8.56069821111506  13.6857240767045 8.17523796719638  C 14.0104493741122 7.78966983198686  14.1874731445312 7.34455116521662  14.2169771173651 6.83988196688565  C 14.246503795277 6.29309586292614  14.1874731445312 5.78143595414595  14.0399306196733 5.30468645796342  C 13.8923880948153 4.82806642289595  13.6488611505682 4.41805236039595  13.3094860839844 4.07460113081499  C 12.9699747425426 3.7311283314098  12.5309130637429 3.45769211869673  11.9923010919744 3.25437883522727  C 11.4536890980114 3.05119501287287  10.8227721946023 2.94954914550781  10.0996639071378 2.94954914550781  C 9.19937284712358 2.94954914550781  8.45041736949574 3.10028103804155  7.85268390447443 3.40163695290306  C 7.25508671431108 3.70301443758878  6.77168960848721 4.06752411998402  6.40278786399148 4.495187569913  C 6.03388611949574 4.92272155872692  5.77555042613636 5.36436645063921  5.62800790127841 5.81994960271662  C 5.48046537642045 6.27553275479403  5.41400763494318 6.65760554532138  5.42881640625 6.96608161066229  C 5.44351160777699 7.33048340176669  5.56532049005682 7.59695047385476  5.79403866299716 7.76513758322976  C 6.0227568359375 7.93332469260476  6.26994054066051 8.02101068781073  6.53563518732244 8.02800139825995  C 6.80119355912642 8.03499210870916  7.04472050337358 7.96497709184127  7.26607972301136 7.81771897416549  C 7.48743894264915 7.6704608564897  7.59811854137074 7.45670465753729  7.59811854137074 7.17638562566584  C 7.59811854137074 7.00806905517578  7.6534697043679 6.80128199684837  7.76414930308949 6.55598126886541  C 7.87482890181108 6.31068054088246  8.02616448419744 6.07584429820668  8.21804243607954 5.85149413174716  C 8.4098749778054 5.62725185657848  8.64229534357244 5.43789840309837  8.9153262384588 5.28380062699752  C 9.18835713334517 5.12955179887252  9.49457146661932 5.05245975008878  9.83396926047585 5.05245975008878  C 10.4980696244673 5.05245975008878  11.0293226429332 5.21018235307174  11.4278646351207 5.5256060102983  C 11.8262703302557 5.84102964643999  12.0107666459517 6.23706228804155  11.981285378196 6.71370389293324  C 11.981285378196 6.95201391046698  11.9074686834162 7.1727824107777  11.7599261585582 7.37609569424716  C 11.6122700639205 7.57940897771662  11.4240942826704 7.7756236805309  11.195353404652 7.96497711292614  C 10.9666579367898 8.15420108420633  10.7231310147372 8.3434466463956  10.4649088689631 8.53267061767579  C 10.2065731756037 8.72189458895597  9.96315980113636 8.9182387528853  9.73432805841619 9.12155203635476  C 9.50563259055397 9.32473585870917  9.31375463867187 9.54559068048651  9.15887586558948 9.78394383766868  C 9.00386081764914 10.0222538552024  8.91902840909091 10.2816223255504  8.90419693270596 10.5619413574219  L 8.92636465731534 11.3611267911044  C 8.92636465731534 11.5714092151989  9.0297080300071 11.7711192626953  9.23625847833807 11.9604727161754  C 9.44292249644886 12.1497182783647  9.71595339133522 12.2513641246449  10.0553738902699 12.2653239757191  C 10.3947943892045 12.2513641246449  10.6641230912642 12.1462229125977  10.8633372913707 11.9499003395774  C 11.0625287863991 11.7536640669389  11.1548564231179 11.5293139004794  11.1400476740057 11.2770440318715  L 11.1400476518111 10.7722022116921  Z M 9.04817353959517 15.5773261641069  C 9.30639568536932 15.8227347833807  9.62741878995028 15.9453312122692  10.0110157137784 15.9453312122692  C 10.3947489346591 15.9453312122692  10.7157720392401 15.8227347833807  10.9739941628196 15.5773261641069  C 11.232329856179 15.3320254361239  11.3613841441761 15.0341432961204  11.3613841441761 14.6835934858842  C 11.3613841441761 14.319083803489  11.232329856179 14.0142109741211  10.9739941628196 13.7688023548473  C 10.7157720392401 13.5235016268643  10.3947489346591 13.400797306685  10.0110157137784 13.400797306685  C 9.62741876775568 13.400797306685  9.30639566317472 13.5235016057795  9.04817353959517 13.7688023548473  C 8.78983784623579 14.0142109741211  8.66078355823863 14.319083803489  8.66078355823863 14.6835934858842  C 8.66078355823863 15.0341433172053  8.78983784623579 15.3320254361239  9.04817353959517 15.5773261641069  Z M 6.13709317294034 0.836023045765271  C 7.33258283025568 0.338344557883523  8.61644813121449 0.0895484641335228  9.98898428622159 0.0895484641335228  C 11.3613841663707 0.0895484641335228  12.6490424804687 0.338344557883523  13.8517548384233 0.83602304576527  C 15.0545807439631 1.33372310347124  16.1060710893111 2.00670887229226  17.0062258744673 2.85482930020419  C 17.9064942072088 3.70297129794034  18.6148164506392 4.69834984352805  19.1313742897727 5.84098650679155  C 19.6479321289062 6.98351527876421  19.9061542524858 8.20673933549361  19.9061542524858 9.51046450639205  C 19.9061542524858 10.8143191384055  19.6479321289062 12.0339399591619  19.1313742897727 13.1696074607156  C 18.6148164506392 14.305145522239  17.9064942294034 15.3005240678267  17.0062258744673 16.1556352061879  C 16.1060710893111 17.0108542358398  15.0545807661577 17.68373211337  13.8517548384233 18.1744414606268  C 12.6490424804688 18.6651508078835  11.3613841663707 18.9104515358665  9.98898428622159 18.9104515358665  C 8.61644813121449 18.9104515358665  7.33258285245029 18.6651508078835  6.13709317294034 18.1744414606268  C 4.94173979048296 17.68373211337  3.89392891068892 17.0108542358398  2.99377414772727 16.1556352061879  C 2.0935058149858 15.3005240678267  1.3851835715554 14.305145522239  0.868625732421877 13.1696074607156  C 0.352067893288353 12.0339183682528  0.0938457697088069 10.8142975474964  0.0938457697088069 9.51046450639205  C 0.0938457697088069 8.20673933549361  0.352067893288353 6.98351527876421  0.868625732421875 5.84098650679155  C 1.3851835715554 4.69834984352805  2.09350579279119 3.70297129794034  2.99377414772727 2.85482930020419  C 3.89392893288352 2.00670887229226  4.94173979048296 1.33372310347124  6.13709317294034 0.836023045765271  Z " fill-rule="nonzero" fill="#50d296" stroke="none" transform="matrix(1 0 0 1 351 0 )" />
  </g>
</svg>