<?xml version="1.0" encoding="utf-8"?>
<svg version="1.1" xmlns:xlink="http://www.w3.org/1999/xlink" width="30px" height="26px" xmlns="http://www.w3.org/2000/svg">
  <g transform="matrix(1 0 0 1 -273 -10 )">
    <path d="M 15.0342888192268 25.9655467980296  L 15.0342888192268 25.9619036761084  C 15.7315789707419 25.9619036761084  16.4288690961338 25.7068845279146  17.0280749477534 25.1986677524631  C 20.6179600052247 21.938065681445  26.7509032392894 16.3877558661741  27.3501090909091 15.7757099158456  C 29.3438952194357 13.7391997988506  30.2409206635319 10.937632183908  29.8931672675026 8.08506075533662  C 29.3938290491118 4.06122276067324  26.1534807471264 0.700434583333335  22.1641251044932 0.190396286945814  C 19.557389937968 -0.157873558207001  16.9324164922988 0.680591317254441  14.9843549895507 2.48374712643678  C 13.0405026907001 0.700434583333333  10.4457273510972 -0.113805153940888  7.80280154127482 0.190396286945812  C 3.76351209508882 0.700434583333333  0.624814759665622 3.96103668103448  0.0737593782654127 8.08506075533662  C -0.273994017763845 10.937632183908  0.624814759665622 13.7391997721675  2.61681755485893 15.7775314634647  C 3.31589103970742 16.3895774404762  9.44705091431557 21.9417088033662  13.0387193312435 25.2004893267652  C 13.6379251828631 25.7105276498358  14.3352153343783 25.9655467980296  15.0342888192268 25.9655467980296  Z M 6.20491925287356 13.22916147578  L 6.2067026123302 13.22916147578  C 5.93968038977583 13.2144853129368  5.68150425161291 13.1263726858179  5.45947865726228 12.9741423009031  C 4.52183159682143 12.0161222936892  4.00119803543277 10.7129085440909  4.01496455067921 9.35833497536946  C 4.02279075732253 6.55023383618437  6.24846290314263 4.27524138851769  8.99764652560084 4.2652380952381  C 9.54920030334648 4.2652380952381  9.99632296238245 4.72194195411055  9.99632296238245 5.28531471469622  C 9.99533929684373 5.84797599601294  9.54850460235694 6.30357069833827  8.99764652560084 6.3035697865353  C 7.35339712643678 6.3035697865353  6.00696731974922 7.67885166050903  6.00696731974922 9.35833497536946  C 6.00696731974922 10.1743962869458  6.35472071577847 10.937632183908  6.90399276384535 11.4986743206076  C 7.09480257233601 11.6843264365245  7.20279319694485 11.9417369989784  7.20279319694485 12.2109064039409  C 7.20279319694485 12.4800758089034  7.09480257233601 12.7374863713573  6.90399276384535 12.9231384872742  C 6.72051588331719 13.1166879755292  6.46867121186641 13.2269342626321  6.20491925287356 13.22916147578  Z " fill-rule="nonzero" fill="#a8e17d" stroke="none" transform="matrix(1 0 0 1 273 10 )" />
  </g>
</svg>