<?xml version="1.0" encoding="utf-8"?>
<svg version="1.1" xmlns:xlink="http://www.w3.org/1999/xlink" width="20px" height="20px" xmlns="http://www.w3.org/2000/svg">
  <g transform="matrix(1 0 0 1 -329 -10 )">
    <path d="M 18.7113671875 11.5489375  C 18.265421875 11.5489375  17.9046015625 11.91015625  17.9046015625 12.355703125  L 17.9046015625 15.90540625  C 17.9046015625 17.21246875  16.840984375 18.2760859375  15.533921875 18  L 4.1391015625 18  C 2.8320390625 18.2760859375  1.768421875 17.21246875  2 15.90540625  L 2 4.5105625  C 1.768421875 3.2035  2.8320390625 2.1398828125  4.1391015625 2.1398828125  L 7.6151640625 2.1398828125  C 8.061109375 2.1398828125  8.4219296875 1.7786640625  8.4219296875 1.3331171875  C 8.4219296875 0.887570312499999  8.0610859375 0.526351562499999  7.6151640625 0.526351562499999  L 4.1391015625 0.526351562499999  C 1.9425390625 0.526351562499999  0.154890624999999 2.313625  0.154890624999999 4.5105625  L 0.154890624999999 15.90540625  C 0.154890624999999 18.10196875  1.9425390625 19.8896171875  4.1391015625 19.8896171875  L 15.5339453125 19.8896171875  C 17.7305078125 19.8896171875  19.51815625 18.10196875  19.51815625 15.90540625  L 19.51815625 12.355703125  C 19.51815625 11.91015625  19.1573125 11.5489609375  18.711390625 11.5489609375  Z " fill-rule="nonzero" fill="#50d296" stroke="none" transform="matrix(1 0 0 1 329 10 )" />
  </g>
</svg>