<?xml version="1.0" encoding="utf-8"?>
<svg version="1.1" xmlns:xlink="http://www.w3.org/1999/xlink" width="15px" height="15px" xmlns="http://www.w3.org/2000/svg">
  <g transform="matrix(1 0 0 1 -334 -10 )">
    <path d="M 0.9708828125 8.6791328125  L 0.751859375 13.3598125  C 0.741617187499999 13.5867109375  0.82671875 13.807703125  0.987429687499999 13.9680390625  C 1.13871875 14.119703125  1.3443359375 14.20440625  1.5578515625 14.20440625  C 1.5704609375 14.20440625  1.583046875 14.2040078125  1.59565625 14.203609375  L 6.2763359375 13.9841875  C 6.4772421875 13.97471875  6.667109375 13.8908359375  6.8089296875 13.7486171875  L 13.9571796875 6.5999453125  C 15.2823828125 5.2751640625  15.1035078125 2.94071875  13.559328125 1.3957421875  C 12.0143515625 -0.147687499999999  9.67990625 -0.326937499999999  8.3555 0.997890625000001  L 1.206453125 8.1465625  C 1.0646328125 8.2883828125  0.980328125 8.4786484375  0.9708828125 8.67915625  Z M 2.5678671875 9.066765625  L 9.4963203125 2.1387109375  C 10.1809765625 1.454453125  11.5187421875 1.6384140625  12.4185078125 2.536984375  C 13.3182734375 3.437125  13.5002421875 4.7752890625  12.816359375 5.459171875  L 5.88865625 12.386828125  L 2.4047421875 12.5503046875  L 2.56784375 9.066765625  Z " fill-rule="nonzero" fill="#50d296" stroke="none" transform="matrix(1 0 0 1 334 10 )" />
  </g>
</svg>