<?xml version="1.0" encoding="utf-8"?>
<svg version="1.1" xmlns:xlink="http://www.w3.org/1999/xlink" width="23px" height="23px" xmlns="http://www.w3.org/2000/svg">
  <g transform="matrix(1 0 0 1 -5 -5 )">
    <path d="M 22.9473684121094 11.5  C 22.9473684121094 5.178  17.822 0.0526315878906245  11.5 0.0526315878906249  C 5.178 0.0526315878906249  0.0526315878906249 5.178  0.0526315878906249 11.5  C 0.0526315878906249 17.822  5.178 22.9473684121094  11.5 22.9473684121094  C 17.822 22.9473684121094  22.9473684121094 17.822  22.9473684121094 11.5  Z M 18.0662105292969 8.53131579394531  L 10.6620526181641 15.9339473818359  C 10.257369438733 16.3384190776753  9.6014726501342 16.3384190776753  9.19678947070312 15.9339473818359  L 4.93378947070312 11.6717105292969  C 4.74959284730171 11.4788918667247  4.64680733262803 11.222493425443  4.64680733262803 10.9558336558702  C 4.64680733262803 10.3834631866559  5.11080527552304 9.91946524376084  5.68317574473741 9.91946524376084  C 5.94983551431017 9.91946524376084  6.20623395559188 10.0222507584345  6.39905261816406 10.2064473818359  L 9.92942105859375 13.7368157939453  L 16.6009473818359 7.06528947070312  C 16.7937660444081 6.88109284730169  17.0501644856898 6.77830733262799  17.3168242552626 6.77830733262799  C 17.889194724477 6.77830733262799  18.353192667372 7.242305275523  18.353192667372 7.81467574473736  C 18.353192667372 8.08133551431015  18.2504071526983 8.33773395559188  18.0662105292969 8.53055261816406  Z " fill-rule="nonzero" fill="#50d296" stroke="none" transform="matrix(1 0 0 1 5 5 )" />
  </g>
</svg>